HIERARCHY
ROOT root
{
	OFFSET	0	13.1	24.9
	CHANNELS 6  Xposition Yposition Zposition Xrotation Yrotation Zrotation
	JOINT spine_1
	{
		OFFSET	0	9.99999	0
		CHANNELS 3  Xrotation Yrotation Zrotation
		JOINT spine_2
		{
			OFFSET	0	112	-10
			CHANNELS 3  Xrotation Yrotation Zrotation
			JOINT spine_3
			{
				OFFSET	0	206.5	19.3
				CHANNELS 3  Xrotation Yrotation Zrotation
				JOINT spine_4
				{
					OFFSET	0	110.4	14.6
					CHANNELS 3  Xrotation Yrotation Zrotation
					JOINT neck_1
					{
						OFFSET	0	71.8	-50.3
						CHANNELS 3  Xrotation Yrotation Zrotation
						JOINT neck_2
						{
							OFFSET	0	86.2	-25.8
							CHANNELS 3  Xrotation Yrotation Zrotation
							JOINT head_ee
							{
								OFFSET	0	179.8	-8.7
								CHANNELS 3  Xrotation Yrotation Zrotation
								End Site
								{
									OFFSET	1	0	0
								}
							}
						}
					}
					JOINT left_clavicle
					{
						OFFSET	-43.2	22.4	-70.8
						CHANNELS 3  Xrotation Yrotation Zrotation
						JOINT left_shoulder
						{
							OFFSET	-93.9	-5.79999	48.7
							CHANNELS 3  Xrotation Yrotation Zrotation
							JOINT left_elbow
							{
								OFFSET	-291.4	-30.8	15.2
								CHANNELS 3  Xrotation Yrotation Zrotation
								JOINT left_lowarm_twist
								{
									OFFSET	-110.7	-3.89999	13.6
									CHANNELS 3  Xrotation Yrotation Zrotation
									JOINT left_hand
									{
										OFFSET	-110.7	-3.89999	13.6
										CHANNELS 3  Xrotation Yrotation Zrotation
										JOINT left_ee
										{
											OFFSET	-80.8	-5.10001	12.1
											CHANNELS 3  Xrotation Yrotation Zrotation
											End Site
											{
												OFFSET	1	0	0
											}
										}
									}
								}
							}
						}
					}
					JOINT right_clavicle
					{
						OFFSET	43.2	22.4	-70.8
						CHANNELS 3  Xrotation Yrotation Zrotation
						JOINT right_shoulder
						{
							OFFSET	93.9	-5.79999	48.7
							CHANNELS 3  Xrotation Yrotation Zrotation
							JOINT right_elbow
							{
								OFFSET	291.4	-30.8	15.2
								CHANNELS 3  Xrotation Yrotation Zrotation
								JOINT right_lowarm_twist
								{
									OFFSET	110.7	-3.89999	13.6
									CHANNELS 3  Xrotation Yrotation Zrotation
									JOINT right_hand
									{
										OFFSET	110.7	-3.89999	13.6
										CHANNELS 3  Xrotation Yrotation Zrotation
										JOINT right_ee
										{
											OFFSET	80.8	-5.10001	12.1
											CHANNELS 3  Xrotation Yrotation Zrotation
											End Site
											{
												OFFSET	1	0	0
											}
										}
									}
								}
							}
						}
					}
				}
			}
		}
	}
	JOINT left_hip
	{
		OFFSET	-82.8	-127.5	0.300001
		CHANNELS 3  Xrotation Yrotation Zrotation
		JOINT left_knee
		{
			OFFSET	-28.2	-396.7	2.2
			CHANNELS 3  Xrotation Yrotation Zrotation
			JOINT left_ankle
			{
				OFFSET	-11.7	-411.3	35.4
				CHANNELS 3  Xrotation Yrotation Zrotation
				JOINT left_toes
				{
					OFFSET	0	-60	-88.6
					CHANNELS 3  Xrotation Yrotation Zrotation
					JOINT left_foot_ee
					{
						OFFSET	-22.5	-16.5	-42.2
						CHANNELS 3  Xrotation Yrotation Zrotation
						End Site
						{
							OFFSET	1	0	0
						}
					}
				}
			}
		}
	}
	JOINT right_hip
	{
		OFFSET	82.8	-127.5	0.300001
		CHANNELS 3  Xrotation Yrotation Zrotation
		JOINT right_knee
		{
			OFFSET	28.2	-396.7	2.2
			CHANNELS 3  Xrotation Yrotation Zrotation
			JOINT right_ankle
			{
				OFFSET	11.7	-411.3	35.4
				CHANNELS 3  Xrotation Yrotation Zrotation
				JOINT right_toes
				{
					OFFSET	0	-60	-88.6
					CHANNELS 3  Xrotation Yrotation Zrotation
					JOINT right_foot_ee
					{
						OFFSET	22.5	-16.5	-42.2
						CHANNELS 3  Xrotation Yrotation Zrotation
						End Site
						{
							OFFSET	1	0	0
						}
					}
				}
			}
		}
	}
}
MOTION
Frames: 9
Frame Time: 0.02
2801.54410245 713.33 -1631.77969636 32.0289299824 84.6513234119 -27.8602941632 -1.21314 -0.171217 -0.117939 -1.21314 -0.163365 -0.128595 -1.21277 -0.129272 -0.162831 -1.21277 -0.153366 -0.140371 -3.70464 6.06184 -1.46717 -3.63866 12.1912 -0.581062 -0.0 0.0 -0.0 3.89642 -2.59034 7.37427 5.14882 -33.8929 58.1643 1.20595 -30.8526 0.332781 44.4876 -0.603024 -5.51026 -2.20073 -3.41984 -16.4759 -0.0 0.0 -0.0 4.60431 -1.3032 -8.93925 -20.3109 25.8982 -60.513 0.870163 23.3184 -0.179559 -6.48892 0.273315 -0.782749 2.51521 -5.53514 -19.1801 0.0 0.0 0.0 5.98521 18.8678 -4.44089 -6.02056 0.20065 0.901768 -1.57786 -0.266833 0.234469 38.6151 -0.0 -0.0 -0.0 0.0 -0.0 18.8176 17.2086 -10.196 -52.5352 1.45006 -7.65356 -19.377 17.1107 -3.23553 -38.4441 0.0 0.0 0.0 0.0 0.0 
2784.15024895 715.816 -1615.98612857 59.9705340962 86.0488063888 -55.5553521524 -1.27502 -0.0404399 -0.0163743 -1.27502 -0.039316 -0.0189144 -1.27501 -0.0338586 -0.0275154 -1.27501 -0.0377792 -0.0218228 -3.14383 5.56961 -1.18235 -3.0841 11.0491 -0.4128 -0.0 0.0 -0.0 3.98041 -2.79618 7.52899 5.75216 -34.1492 56.9906 1.36666 -34.0963 0.419102 43.0654 -0.518234 -5.34925 -2.08204 -3.67731 -15.7638 -0.0 0.0 -0.0 4.49378 -1.41747 -8.7311 -20.6717 25.3903 -61.3651 0.74938 20.3659 -0.134607 -5.71025 0.235851 -0.690498 2.32497 -7.83399 -18.6916 0.0 0.0 0.0 1.24929 19.7513 -4.47899 -2.07632 0.0799054 0.308609 0.378777 -1.26387 -0.0561777 37.3409 -0.0 -0.0 -0.0 0.0 -0.0 23.1605 17.5942 -10.1341 -47.2645 0.992365 -6.98361 -22.2843 17.1788 -3.72447 -38.9528 0.0 0.0 0.0 0.0 0.0 
2766.86357766 714.033 -1595.43345095 113.158773582 86.6339909354 -109.13016409 -1.23576 -0.0887043 0.0327095 -1.23577 -0.090606 0.0269988 -1.23581 -0.0943933 0.00531788 -1.2358 -0.0923688 0.0201588 -1.53209 4.55212 -1.84617 -1.4593 9.66925 -1.38502 -0.0 0.0 -0.0 4.03515 -2.78987 7.63795 6.08232 -33.7095 55.7482 1.55004 -37.516 0.526439 41.9351 -0.453723 -5.21984 -1.74239 -5.32102 -14.1444 -0.0 0.0 -0.0 4.32801 -2.01375 -8.43687 -21.8341 24.7668 -62.1954 0.667057 18.2857 -0.107358 -5.84403 0.242198 -0.706382 2.05448 -11.6773 -18.1825 0.0 0.0 0.0 -0.953189 21.8965 -2.73336 0.682923 -0.0287234 -0.100862 1.91184 -1.54629 -0.28265 35.5 -0.0 -0.0 -0.0 0.0 -0.0 24.9718 17.794 -10.8883 -45.6727 0.866516 -6.77342 -21.7561 16.0637 -3.60292 -38.1735 0.0 0.0 0.0 0.0 0.0 
2749.04936653 705.596 -1569.35435944 140.124548081 85.717177242 -136.287765289 -1.19391 -0.12883 -0.0301977 -1.19392 -0.126648 -0.0383344 -1.19383 -0.114401 -0.0664943 -1.19382 -0.123467 -0.0475922 -0.927415 3.83533 -2.26976 -0.853476 8.70673 -1.969 -0.0 0.0 -0.0 4.09501 -2.72971 7.76005 6.16577 -32.8985 53.7029 1.69254 -39.9742 0.61564 41.6369 -0.437133 -5.1855 -1.37623 -6.35034 -12.0673 -0.0 0.0 -0.0 4.19247 -2.88783 -8.21391 -23.7114 24.4172 -62.8369 0.590338 16.301 -0.0845491 -6.54896 0.276256 -0.789842 1.78777 -15.8458 -17.7896 0.0 0.0 0.0 -2.95605 24.5665 -1.45953 1.41627 -0.0609062 -0.208789 2.86806 -1.57065 -0.422928 34.1641 -0.0 -0.0 -0.0 0.0 -0.0 25.8834 16.9323 -10.5322 -44.6208 0.786601 -6.63269 -21.8277 16.3063 -3.62188 -37.4618 0.0 0.0 0.0 0.0 0.0 
2719.64558279 704.491 -1547.19752059 147.165866116 85.3789518394 -144.863495127 -0.771714 -0.11554 0.0958372 -0.771717 -0.121404 0.0882909 -0.771913 -0.138055 0.0589479 -0.771895 -0.127013 0.0800114 0.681609 2.65261 -1.33674 0.718481 5.80816 -1.19121 -0.0 0.0 -0.0 4.57084 -3.33745 8.67586 5.36449 -33.2632 52.1 1.87856 -42.9365 0.738839 39.7132 -0.334427 -4.96191 -1.01076 -5.50665 -9.18837 -0.0 0.0 -0.0 3.61724 -2.77246 -7.12281 -25.8859 24.6205 -62.8854 0.569761 15.7615 -0.0788662 -6.3539 0.266729 -0.766789 1.44925 -24.6997 -18.3331 0.0 0.0 0.0 -7.01884 27.7034 0.060169 3.18266 -0.144085 -0.467028 5.2091 -6.96636 -0.778849 31.0866 -0.0 -0.0 -0.0 0.0 -0.0 27.5428 19.7294 -6.85488 -39.6707 0.44595 -5.95214 -22.8166 14.2692 -3.72644 -40.2773 0.0 0.0 0.0 0.0 0.0 
2709.77015232 704.092 -1532.38710417 150.421091915 85.3217684561 -148.618543143 -0.609609 -0.00902841 0.11493 -0.609602 -0.0163234 0.114123 -0.609632 -0.0410932 0.107712 -0.609647 -0.0235664 0.11285 0.641004 2.38941 -1.1705 0.670185 5.2048 -1.03444 -0.0 0.0 -0.0 4.86823 -3.50183 9.26312 5.49757 -33.3586 51.541 2.02299 -45.0558 0.839175 38.1878 -0.258374 -4.78228 -0.959563 -4.51748 -8.40653 -0.0 0.0 -0.0 3.41839 -2.27647 -6.72081 -26.5599 24.9196 -63.0158 0.589683 16.2838 -0.0843653 -6.30238 0.264226 -0.760695 1.27516 -29.4355 -18.6028 0.0 0.0 0.0 -7.7167 28.6616 0.555626 4.00074 -0.185304 -0.58575 5.82009 -11.0266 -0.887665 28.9901 -0.0 -0.0 -0.0 0.0 -0.0 26.8715 21.7363 -4.23832 -27.7709 -0.122971 -4.21846 -22.9996 9.83834 -3.64795 -40.5493 0.0 0.0 0.0 0.0 0.0 
2697.81972867 702.404 -1517.037828 161.716929161 84.8891882231 -160.19620832 -0.526438 0.0294831 0.101445 -0.526433 0.0229682 0.103115 -0.526386 -0.000187703 0.105642 -0.526402 0.0164988 0.104346 0.414239 2.4004 -0.740743 0.436184 4.87428 -0.558553 -0.0 0.0 -0.0 4.96193 -3.53915 9.44928 6.02434 -32.0445 51.3095 2.18817 -47.3008 0.958377 36.2822 -0.170142 -4.55517 -1.00134 -3.79293 -8.3733 -0.0 0.0 -0.0 3.20359 -2.054 -6.30103 -27.2834 24.9962 -62.8998 0.595885 16.4459 -0.0861126 -6.06085 0.252564 -0.732097 1.32981 -29.4063 -18.9076 0.0 0.0 0.0 -8.81536 29.3832 2.0994 3.79852 -0.174958 -0.556458 6.22286 -13.2809 -0.96167 27.2102 -0.0 -0.0 -0.0 0.0 -0.0 26.2357 23.0123 -2.88102 -17.64 -0.316265 -2.67786 -22.4223 1.88934 -3.43064 -40.2233 0.0 0.0 0.0 0.0 0.0 
2679.97425153 700.479 -1514.70263134 165.574218614 85.0470004018 -164.777735456 -0.485747 0.0510571 0.114208 -0.485741 0.0436863 0.117226 -0.485646 0.0170226 0.123938 -0.485665 0.0363826 0.119694 0.275071 2.97662 0.188749 0.293985 5.13858 0.508983 -0.0 0.0 -0.0 5.19864 -2.68828 9.9576 6.69647 -31.3376 51.695 2.41392 -50.0877 1.12801 33.8615 -0.0690519 -4.26273 -1.02582 -2.28056 -7.87413 -0.0 0.0 -0.0 3.14437 -1.74289 -6.16979 -27.7782 24.4953 -63.1574 0.600842 16.5752 -0.0875216 -6.18997 0.258783 -0.747391 1.71954 -29.4006 -21.1582 0.0 0.0 0.0 -9.80569 30.3316 3.56218 3.01847 -0.136018 -0.443132 7.51183 -13.4091 -1.15663 25.2874 -0.0 -0.0 -0.0 0.0 -0.0 25.0025 24.6365 -2.48676 -10.6658 -0.290108 -1.60878 -16.3649 -8.20547 -2.4557 -40.2234 0.0 0.0 0.0 0.0 0.0 
2679.23791633 700.479 -1517.0903686 164.738644215 85.3128657657 -163.939197916 -0.485747 0.0510571 0.114208 -0.485741 0.0436863 0.117226 -0.485646 0.0170226 0.123938 -0.485665 0.0363826 0.119694 0.275071 2.97662 0.188749 0.293985 5.13858 0.508983 -0.0 0.0 -0.0 5.19864 -2.68828 9.9576 6.69647 -31.3376 51.695 2.41392 -50.0877 1.12801 33.8615 -0.0690519 -4.26273 -1.02582 -2.28056 -7.87413 -0.0 0.0 -0.0 3.14437 -1.74289 -6.16979 -27.7782 24.4953 -63.1574 0.600842 16.5752 -0.0875216 -6.18997 0.258783 -0.747391 1.71954 -29.4006 -21.1582 0.0 0.0 0.0 -9.80569 30.3316 3.56218 3.01847 -0.136018 -0.443132 7.51183 -13.4091 -1.15663 25.2874 -0.0 -0.0 -0.0 0.0 -0.0 25.0025 24.6365 -2.48676 -10.6658 -0.290108 -1.60878 -16.3649 -8.20547 -2.4557 -40.2234 0.0 0.0 0.0 0.0 0.0 
